<svg id="Layer_1" data-name="Layer 1" xmlns="http://www.w3.org/2000/svg" xmlns:xlink="http://www.w3.org/1999/xlink" viewBox="0 0 56.69 56.69"><defs><style>.cls-1{fill:none;}.cls-2{clip-path:url(#clip-path);}.cls-3{fill:#00b1ba;}.cls-4{fill:#fff;}</style><clipPath id="clip-path"><rect class="cls-1" x="9.68" y="9.68" width="37.33" height="37.33"/></clipPath></defs><g id="Artwork_12" data-name="Artwork 12"><g class="cls-2"><g class="cls-2"><path class="cls-3" d="M25.16,34.92a.58.58,0,0,0,.42.42A23.24,23.24,0,0,1,34,39.72l1.48,3.41a.57.57,0,0,0,.41.33H36a.56.56,0,0,0,.4-.17l6.94-6.94a.61.61,0,0,0,.16-.51.57.57,0,0,0-.33-.41L39.72,34a23.27,23.27,0,0,1-4.38-8.39.58.58,0,0,0-.42-.41L23.2,22.52h-.13a.65.65,0,0,0-.19,0h0a.61.61,0,0,0-.16.12.36.36,0,0,0-.11.16l0,0a.58.58,0,0,0,0,.19v0a.34.34,0,0,1,0,.1Zm16.75,1.22-5.77,5.77-1-2.41,4.41-4.41ZM29,32.15a2.21,2.21,0,1,0,.46-3.46l-4.63-4.63,9.48,2.13a24,24,0,0,0,4.27,8.2l-4.22,4.22a24,24,0,0,0-8.2-4.27l-2.13-9.48,4.63,4.63A2.2,2.2,0,0,0,29,32.15m.8-2.32a1.07,1.07,0,0,1,.76-.31,1.08,1.08,0,0,1,1.08,1.07,1,1,0,0,1-.32.76,1.09,1.09,0,0,1-1.52,0,1.07,1.07,0,0,1,0-1.52"/><path class="cls-4" d="M10.25,30.13h1.1v.8a.57.57,0,0,0,1.13,0v-.8h1.11a.57.57,0,0,0,.56-.57V26.22a.56.56,0,0,0-.56-.56H12.48V14.15h1.11a.56.56,0,0,0,.56-.56V12.48H25.66v1.11a.56.56,0,0,0,.56.56h3.34a.57.57,0,0,0,.57-.56V12.48h.8a.57.57,0,0,0,0-1.13h-.8v-1.1a.58.58,0,0,0-.57-.57H26.22a.57.57,0,0,0-.56.57v1.1H14.15v-1.1a.57.57,0,0,0-.56-.57H10.25a.58.58,0,0,0-.57.57v3.34a.57.57,0,0,0,.57.56h1.1V25.66h-1.1a.57.57,0,0,0-.57.56v3.34a.58.58,0,0,0,.57.57M26.79,10.81H29V13h-2.2Zm-16,0H13V13H10.81Zm0,16H13V29H10.81Z"/><path class="cls-4" d="M46.45,25.66H45.34V16.09a.57.57,0,1,0-1.13,0v9.57h-1.1a.57.57,0,0,0-.57.56v3.34a.58.58,0,0,0,.57.57h1.1V42.54h-1.1a.58.58,0,0,0-.57.57v1.1H30.13v-1.1a.58.58,0,0,0-.57-.57H26.22a.57.57,0,0,0-.56.57v1.1H16.09a.57.57,0,1,0,0,1.13h9.57v1.11a.56.56,0,0,0,.56.56h3.34a.57.57,0,0,0,.57-.56V45.34H42.54v1.11a.57.57,0,0,0,.57.56h3.34a.56.56,0,0,0,.56-.56V43.11a.57.57,0,0,0-.56-.57H45.34V30.13h1.11a.57.57,0,0,0,.56-.57V26.22a.56.56,0,0,0-.56-.56M29,45.88h-2.2V43.67H29Zm16.89,0H43.67V43.67h2.21Zm0-16.89H43.67v-2.2h2.21Z"/><path class="cls-4" d="M46.45,9.68H43.11a.58.58,0,0,0-.57.57v1.19a33.46,33.46,0,0,0-31.11,31.1H10.25a.58.58,0,0,0-.57.57v3.34a.57.57,0,0,0,.57.56h3.34a.56.56,0,0,0,.56-.56V43.11a.57.57,0,0,0-.56-.57h-1a32.32,32.32,0,0,1,30-30v1a.57.57,0,0,0,.57.56h3.34a.56.56,0,0,0,.56-.56V10.25a.57.57,0,0,0-.56-.57M13,45.88H10.81V43.67H13ZM45.88,13H43.67V10.81h2.21Z"/></g></g></g></svg>