<svg id="Layer_1" data-name="Layer 1" xmlns="http://www.w3.org/2000/svg" xmlns:xlink="http://www.w3.org/1999/xlink" viewBox="0 0 56.69 56.69"><defs><style>.cls-1{fill:none;}.cls-2{clip-path:url(#clip-path);}.cls-3{fill:#fff;}.cls-4{fill:#00b1ba;}</style><clipPath id="clip-path"><rect class="cls-1" x="10.01" y="7.19" width="36.67" height="42.32"/></clipPath></defs><g id="Artwork_13" data-name="Artwork 13"><g class="cls-2"><g class="cls-2"><path class="cls-3" d="M40.2,12.41a.85.85,0,0,1-.47-.12,23.07,23.07,0,0,0-22.7,0,1,1,0,0,1-1.37-.41l0,0a1.11,1.11,0,0,1,.41-1.44,25.13,25.13,0,0,1,24.62,0,1.07,1.07,0,0,1,.43,1.42,1,1,0,0,1-.9.59"/><path class="cls-3" d="M11,23.52a1,1,0,0,1-.6-.19,1.09,1.09,0,0,1-.24-1.48,21.34,21.34,0,0,1,7.64-6.92,22.76,22.76,0,0,1,21,0,21.4,21.4,0,0,1,7.64,6.88,1.09,1.09,0,0,1-.24,1.48,1,1,0,0,1-1.39-.2l0-.06a19.4,19.4,0,0,0-6.91-6.22,20.79,20.79,0,0,0-19.15,0,19.65,19.65,0,0,0-6.93,6.26.87.87,0,0,1-.79.45"/><path class="cls-4" d="M23.77,49.06a.92.92,0,0,1-.71-.31A21.44,21.44,0,0,1,19,43.16,19.44,19.44,0,0,1,16.82,34,11.54,11.54,0,0,1,39.9,34a1,1,0,0,1-1,1,1,1,0,0,1-1-1h0a9.31,9.31,0,0,0-1.08-4.29A9.54,9.54,0,0,0,18.86,34a17.22,17.22,0,0,0,1.89,8.15,20.18,20.18,0,0,0,3.77,5.12,1.11,1.11,0,0,1,0,1.5,1.07,1.07,0,0,1-.75.32Z"/><path class="cls-3" d="M38.38,45.15a10.74,10.74,0,0,1-6.31-1.88A11.39,11.39,0,0,1,27.22,34a1,1,0,1,1,2,0h0a9.17,9.17,0,0,0,3.95,7.53A8.65,8.65,0,0,0,38.38,43a12.59,12.59,0,0,0,2.12-.21,1,1,0,0,1,1.18.83v0a1,1,0,0,1-.83,1.22,13.72,13.72,0,0,1-2.47.26Z"/><path class="cls-3" d="M34.29,49.5a.84.84,0,0,1-.27,0A16,16,0,0,1,22,34a6.28,6.28,0,0,1,12.55,0,4.24,4.24,0,0,0,8.48,0A14.63,14.63,0,0,0,28.27,19.53,14.82,14.82,0,0,0,14.8,28.05,14.24,14.24,0,0,0,13.6,34,21.85,21.85,0,0,0,15,41.61,1.06,1.06,0,0,1,14.38,43h0a1,1,0,0,1-1.29-.58l0,0A24.65,24.65,0,0,1,11.58,34,16.51,16.51,0,0,1,13,27.12,16.85,16.85,0,0,1,45.09,34a6.28,6.28,0,0,1-12.56,0,4.24,4.24,0,0,0-8.47,0,13.57,13.57,0,0,0,3.81,9.54,13.77,13.77,0,0,0,6.66,3.92,1.06,1.06,0,0,1,.72,1.29,1,1,0,0,1-1,.8"/></g></g></g></svg>