<svg id="Layer_1" data-name="Layer 1" xmlns="http://www.w3.org/2000/svg" xmlns:xlink="http://www.w3.org/1999/xlink" viewBox="0 0 56.69 56.69"><defs><style>.cls-1,.cls-3,.cls-4{fill:none;}.cls-2{clip-path:url(#clip-path);}.cls-3{stroke:#282d33;}.cls-3,.cls-4{stroke-width:1.27px;}.cls-4{stroke:#00b1ba;}</style><clipPath id="clip-path"><rect class="cls-1" x="7.31" y="1.27" width="42.08" height="54.16"/></clipPath></defs><g id="Artwork_5" data-name="Artwork 5"><g class="cls-2"><g class="cls-2"><line class="cls-3" x1="7.94" y1="52.47" x2="7.94" y2="4.22"/><line class="cls-3" x1="48.75" y1="4.22" x2="48.75" y2="52.47"/><line class="cls-3" x1="48.75" y1="41.61" x2="7.94" y2="41.61"/><line class="cls-3" x1="7.94" y1="15.08" x2="48.75" y2="15.08"/><path class="cls-3" d="M40.15,24.81A2.88,2.88,0,1,1,37.27,22,2.87,2.87,0,0,1,40.15,24.81Z"/><polyline class="cls-3" points="11.5 1.27 11.5 11.16 45.19 11.16 45.19 1.27"/><polyline class="cls-3" points="45.19 55.42 45.19 45.53 11.5 45.53 11.5 55.42"/><polyline class="cls-4" points="26.03 6.51 28.35 4.21 30.66 6.51"/><polyline class="cls-4" points="30.66 50.28 28.35 52.58 26.03 50.28"/><polygon class="cls-3" points="11.5 18.62 11.5 32.14 17.73 23.91 23.85 32 27.81 26.77 32.84 33.42 33.95 34.89 45.19 34.89 45.19 18.62 11.5 18.62"/></g></g></g></svg>