<svg id="Layer_1" data-name="Layer 1" xmlns="http://www.w3.org/2000/svg" xmlns:xlink="http://www.w3.org/1999/xlink" viewBox="0 0 56.69 56.69"><defs><style>.cls-1,.cls-3,.cls-4,.cls-5{fill:none;}.cls-2{clip-path:url(#clip-path);}.cls-3{stroke:#00b1ba;}.cls-3,.cls-4{stroke-width:1.27px;}.cls-4,.cls-5{stroke:#282d33;}.cls-5{stroke-width:1.91px;}</style><clipPath id="clip-path"><rect class="cls-1" x="1.46" y="3.47" width="53.77" height="49.76"/></clipPath></defs><g id="Artwork_10" data-name="Artwork 10"><g class="cls-2"><g class="cls-2"><line class="cls-3" x1="13.67" y1="3.47" x2="13.67" y2="5.65"/></g><line class="cls-3" x1="8.37" y1="6.43" x2="10.25" y2="7.52"/><line class="cls-3" x1="8.27" y1="12.53" x2="10.15" y2="11.44"/><line class="cls-3" x1="13.48" y1="15.67" x2="13.48" y2="13.48"/><line class="cls-3" x1="18.77" y1="12.7" x2="16.89" y2="11.61"/><line class="cls-3" x1="18.87" y1="6.6" x2="16.99" y2="7.69"/><g class="cls-2"><rect class="cls-4" x="2.1" y="20.05" width="52.49" height="32.54"/></g><polyline class="cls-4" points="18.96 48.58 6.09 48.58 6.09 24.07 50.6 24.07 50.6 48.58 37.33 48.58"/><polyline class="cls-4" points="22.83 17.69 22.83 14.45 35.38 14.45 35.38 17.69"/><line class="cls-4" x1="42.43" y1="16.29" x2="51.54" y2="16.29"/><g class="cls-2"><path class="cls-5" d="M41.6,38.41A13.54,13.54,0,1,1,28.06,24.78,13.58,13.58,0,0,1,41.6,38.41Z"/><path class="cls-5" d="M28.06,29.83a8.41,8.41,0,0,0-3.22.64,3.36,3.36,0,1,1-4.67,4.69,8.75,8.75,0,0,0-.63,3.25,8.53,8.53,0,1,0,8.52-8.58Z"/></g></g></g></svg>