<svg id="Layer_1" data-name="Layer 1" xmlns="http://www.w3.org/2000/svg" xmlns:xlink="http://www.w3.org/1999/xlink" viewBox="0 0 56.69 56.69"><defs><style>.cls-1,.cls-3,.cls-4,.cls-5,.cls-6{fill:none;}.cls-2{clip-path:url(#clip-path);}.cls-3,.cls-4,.cls-5{stroke:#282d33;}.cls-3,.cls-4,.cls-5,.cls-6{stroke-width:1.27px;}.cls-4{stroke-dasharray:2.64 2.64;}.cls-5{stroke-dasharray:2.51 2.51;}.cls-6{stroke:#00b1ba;}</style><clipPath id="clip-path"><rect class="cls-1" x="1.46" y="3.92" width="53.77" height="48.85"/></clipPath></defs><g id="Artwork_7" data-name="Artwork 7"><g class="cls-2"><g class="cls-2"><line class="cls-3" x1="54.59" y1="10.75" x2="54.59" y2="11.58"/><line class="cls-4" x1="54.59" y1="13.31" x2="54.59" y2="50.44"/><polyline class="cls-3" points="54.59 51.3 54.59 52.14 53.76 52.14"/><line class="cls-5" x1="52.12" y1="52.14" x2="3.75" y2="52.14"/><polyline class="cls-3" points="2.93 52.14 2.1 52.14 2.1 51.3"/><line class="cls-4" x1="2.1" y1="49.58" x2="2.1" y2="12.44"/><line class="cls-3" x1="2.1" y1="11.58" x2="2.1" y2="10.75"/><rect class="cls-3" x="2.1" y="4.56" width="52.49" height="6.19"/></g><line class="cls-3" x1="4.5" y1="7.61" x2="6.49" y2="7.61"/><line class="cls-3" x1="7.95" y1="7.61" x2="9.94" y2="7.61"/><line class="cls-3" x1="11.4" y1="7.61" x2="13.39" y2="7.61"/><polyline class="cls-6" points="22.76 36.13 19.48 33.51 16.2 30.88 19.48 28.25 22.76 25.63"/><polyline class="cls-6" points="33.93 36.13 37.21 33.51 40.49 30.88 37.21 28.25 33.93 25.63"/><line class="cls-6" x1="30.92" y1="22.68" x2="26.19" y2="39.09"/></g></g></svg>