<svg id="Layer_1" data-name="Layer 1" xmlns="http://www.w3.org/2000/svg" xmlns:xlink="http://www.w3.org/1999/xlink" viewBox="0 0 56.69 56.69"><defs><style>.cls-1,.cls-3,.cls-4,.cls-5{fill:none;}.cls-2{clip-path:url(#clip-path);}.cls-3,.cls-4{stroke:#00b1ba;}.cls-3,.cls-4,.cls-5{stroke-width:1.27px;}.cls-4{stroke-linejoin:bevel;}.cls-5{stroke:#282d33;}</style><clipPath id="clip-path"><rect class="cls-1" x="6.89" y="2.26" width="42.92" height="52.18"/></clipPath></defs><g id="Artwork_2" data-name="Artwork 2"><g class="cls-2"><g class="cls-2"><path class="cls-3" d="M19.67,28.79a3.74,3.74,0,1,1,7.48,0v.51c0,2.25-4.77,4-6.34,6.3a7.37,7.37,0,0,0-1.49,4.25H27.1"/><line class="cls-3" x1="34.58" y1="40.7" x2="34.58" y2="24.48"/><polyline class="cls-4" points="37.08 35.96 27.78 35.96 34.47 24.99"/><path class="cls-5" d="M49.17,33.18A20.83,20.83,0,1,1,28.35,12.57,20.72,20.72,0,0,1,49.17,33.18Z"/><path class="cls-5" d="M32.54,8a.91.91,0,0,1-.91.89H25.06a.89.89,0,0,1-.9-.89V3.79a.89.89,0,0,1,.9-.89h6.57a.89.89,0,0,1,.9.89Z"/><path class="cls-5" d="M12.27,16.3l-1.49-2.17a.55.55,0,0,1,.15-.78l3.38-2.27a.56.56,0,0,1,.78.15l1.5,2.17"/><path class="cls-5" d="M44.42,16.3l1.49-2.17a.55.55,0,0,0-.15-.78l-3.38-2.27a.56.56,0,0,0-.78.15L40.11,13.4"/><line class="cls-5" x1="28.18" y1="16.17" x2="28.18" y2="19.03"/><line class="cls-5" x1="19.61" y1="18.53" x2="21.05" y2="21.01"/><line class="cls-5" x1="13.38" y1="24.81" x2="15.88" y2="26.25"/><line class="cls-5" x1="11.16" y1="33.35" x2="14.05" y2="33.35"/><line class="cls-5" x1="13.54" y1="41.83" x2="16.04" y2="40.4"/><line class="cls-5" x1="19.89" y1="48" x2="21.34" y2="45.52"/><line class="cls-5" x1="28.51" y1="50.2" x2="28.51" y2="47.34"/><line class="cls-5" x1="37.08" y1="47.84" x2="35.64" y2="45.36"/><line class="cls-5" x1="43.31" y1="41.55" x2="40.81" y2="40.12"/><line class="cls-5" x1="45.54" y1="33.02" x2="42.64" y2="33.02"/><line class="cls-5" x1="43.15" y1="24.54" x2="40.65" y2="25.96"/><line class="cls-5" x1="36.8" y1="18.37" x2="35.35" y2="20.84"/><line class="cls-5" x1="28.35" y1="11.91" x2="28.35" y2="8.8"/></g></g></g></svg>