<svg id="Layer_1" data-name="Layer 1" xmlns="http://www.w3.org/2000/svg" xmlns:xlink="http://www.w3.org/1999/xlink" viewBox="0 0 56.69 56.69"><defs><style>.cls-1,.cls-3,.cls-4{fill:none;}.cls-2{clip-path:url(#clip-path);}.cls-3{stroke:#00b1ba;stroke-width:1.27px;}.cls-4{stroke:#282d33;stroke-width:1.91px;}</style><clipPath id="clip-path"><rect class="cls-1" x="6.05" y="1.85" width="44.6" height="52.99"/></clipPath></defs><g id="Artwork_16" data-name="Artwork 16"><g class="cls-2"><g class="cls-2"><path class="cls-3" d="M40.49,23.86a12.14,12.14,0,1,1-12.14-12A12.07,12.07,0,0,1,40.49,23.86Z"/><path class="cls-3" d="M31.64,22.77a3.3,3.3,0,1,1-3.29-3.26A3.28,3.28,0,0,1,31.64,22.77Z"/><path class="cls-3" d="M30.82,26.4H25.87a3.27,3.27,0,0,0-3.29,3.26v.26a8.46,8.46,0,0,0,11.53,0v-.26A3.27,3.27,0,0,0,30.82,26.4Z"/><path class="cls-4" d="M28.35,2.81A21.23,21.23,0,0,0,7,23.92C7,35.59,28.35,53.59,28.35,53.59s21.34-18,21.34-29.67A21.22,21.22,0,0,0,28.35,2.81Z"/></g></g></g></svg>