<svg id="Layer_1" data-name="Layer 1" xmlns="http://www.w3.org/2000/svg" xmlns:xlink="http://www.w3.org/1999/xlink" viewBox="0 0 56.69 56.69"><defs><style>.cls-1,.cls-3,.cls-4,.cls-5,.cls-6,.cls-7{fill:none;}.cls-2{clip-path:url(#clip-path);}.cls-3,.cls-4,.cls-5,.cls-6{stroke:#fff;}.cls-3,.cls-4,.cls-5{stroke-width:1.91px;}.cls-4{stroke-dasharray:2.64 2.64;}.cls-5{stroke-dasharray:2.51 2.51;}.cls-6,.cls-7{stroke-width:1.27px;}.cls-7{stroke:#00b1ba;}</style><clipPath id="clip-path"><rect class="cls-1" x="1.15" y="3.76" width="54.4" height="49.17"/></clipPath></defs><g id="Artwork_15" data-name="Artwork 15"><g class="cls-2"><g class="cls-2"><line class="cls-3" x1="54.59" y1="10.59" x2="54.59" y2="11.42"/><line class="cls-4" x1="54.59" y1="13.15" x2="54.59" y2="50.28"/><polyline class="cls-3" points="54.59 51.14 54.59 51.98 53.76 51.98"/><line class="cls-5" x1="52.12" y1="51.98" x2="3.75" y2="51.98"/><polyline class="cls-3" points="2.93 51.98 2.1 51.98 2.1 51.14"/><line class="cls-4" x1="2.1" y1="49.42" x2="2.1" y2="12.28"/><line class="cls-3" x1="2.1" y1="11.42" x2="2.1" y2="10.59"/><rect class="cls-6" x="2.1" y="4.4" width="52.49" height="6.19"/></g><line class="cls-6" x1="4.5" y1="7.45" x2="6.49" y2="7.45"/><line class="cls-6" x1="7.95" y1="7.45" x2="9.94" y2="7.45"/><line class="cls-6" x1="11.4" y1="7.45" x2="13.39" y2="7.45"/><polyline class="cls-7" points="22.76 35.98 19.48 33.35 16.2 30.72 19.48 28.09 22.76 25.47"/><polyline class="cls-7" points="33.93 35.98 37.21 33.35 40.49 30.72 37.21 28.09 33.93 25.47"/><line class="cls-7" x1="30.92" y1="22.52" x2="26.19" y2="38.93"/></g></g></svg>