<svg id="Layer_1" data-name="Layer 1" xmlns="http://www.w3.org/2000/svg" xmlns:xlink="http://www.w3.org/1999/xlink" viewBox="0 0 56.69 56.69"><defs><style>.cls-1,.cls-3,.cls-4{fill:none;}.cls-2{clip-path:url(#clip-path);}.cls-3{stroke:#282d33;}.cls-3,.cls-4{stroke-width:1.27px;}.cls-4{stroke:#00b1ba;}</style><clipPath id="clip-path"><rect class="cls-1" x="1.46" y="6.94" width="53.77" height="42.8"/></clipPath></defs><g id="Artwork_4" data-name="Artwork 4"><g class="cls-2"><g class="cls-2"><polyline class="cls-3" points="51.45 16.2 54.59 16.2 54.59 41.48 48.54 41.48 48.54 48.19 41.98 41.48 19.78 41.48"/><polygon class="cls-3" points="48.26 7.58 2.1 7.58 2.1 35.75 9.41 35.75 9.41 44.6 18.98 35.75 48.26 35.75 48.26 7.58"/></g><rect class="cls-3" x="6.06" y="11.63" width="38.24" height="20.07"/><g class="cls-2"><path class="cls-4" d="M18.07,21.52A2.09,2.09,0,1,1,16,19.39,2.1,2.1,0,0,1,18.07,21.52Z"/><path class="cls-4" d="M27.27,21.52a2.09,2.09,0,1,1-2.09-2.13A2.11,2.11,0,0,1,27.27,21.52Z"/><path class="cls-4" d="M36.46,21.52a2.09,2.09,0,1,1-2.09-2.13A2.11,2.11,0,0,1,36.46,21.52Z"/></g></g></g></svg>