<svg id="Layer_1" data-name="Layer 1" xmlns="http://www.w3.org/2000/svg" xmlns:xlink="http://www.w3.org/1999/xlink" viewBox="0 0 56.69 56.69"><defs><style>.cls-1,.cls-3,.cls-4{fill:none;}.cls-2{clip-path:url(#clip-path);}.cls-3{stroke:#282d33;}.cls-3,.cls-4{stroke-linejoin:bevel;stroke-width:1.27px;}.cls-4{stroke:#00b1ba;}</style><clipPath id="clip-path"><rect class="cls-1" x="5.84" y="1.37" width="45.02" height="53.96"/></clipPath></defs><g id="Artwork_1" data-name="Artwork 1"><g class="cls-2"><g class="cls-2"><line class="cls-3" x1="28.35" y1="1.37" x2="28.35" y2="4.61"/><line class="cls-3" x1="22.52" y1="2.13" x2="23.36" y2="5.26"/></g><line class="cls-3" x1="17.09" y1="4.38" x2="18.71" y2="7.19"/><line class="cls-3" x1="12.43" y1="7.96" x2="14.72" y2="10.25"/><line class="cls-3" x1="8.85" y1="12.62" x2="11.66" y2="14.24"/><g class="cls-2"><line class="cls-3" x1="6.6" y1="18.05" x2="9.74" y2="18.89"/><line class="cls-3" x1="5.84" y1="23.87" x2="9.08" y2="23.87"/><line class="cls-3" x1="50.86" y1="23.88" x2="47.61" y2="23.88"/><line class="cls-3" x1="50.09" y1="18.05" x2="46.96" y2="18.89"/></g><line class="cls-3" x1="47.84" y1="12.62" x2="45.03" y2="14.24"/><line class="cls-3" x1="44.26" y1="7.96" x2="41.97" y2="10.25"/><line class="cls-3" x1="39.6" y1="4.38" x2="37.98" y2="7.19"/><g class="cls-2"><line class="cls-3" x1="34.17" y1="2.13" x2="33.33" y2="5.26"/><path class="cls-3" d="M12,25.59c0,.53.38,8,6.48,15.84a9.65,9.65,0,0,1,1.42,4.9H36.44a9.89,9.89,0,0,1,1.45-4.9c6.09-7.84,6.48-15.31,6.48-15.84"/><line class="cls-3" x1="17.69" y1="46.52" x2="38.72" y2="46.52"/><line class="cls-3" x1="17.69" y1="50.6" x2="38.72" y2="50.6"/><line class="cls-3" x1="20.91" y1="54.69" x2="35.49" y2="54.69"/><line class="cls-3" x1="20.13" y1="50.62" x2="20.13" y2="46.74"/><path class="cls-4" d="M17.46,15.28h2.78a2.85,2.85,0,0,1,2.84,2.85"/><path class="cls-4" d="M26.53,46V15.18a4.28,4.28,0,1,0-8.55,0"/><path class="cls-4" d="M17.46,21a2.85,2.85,0,0,1,0-5.7h.6"/><path class="cls-4" d="M12,24.14h0a3.23,3.23,0,0,1,3.23-3.23h1.39"/><path class="cls-4" d="M22.19,20.85H21a1.39,1.39,0,0,1-1.39-1.39V18.18"/><path class="cls-4" d="M38.94,15.28H36.17a2.85,2.85,0,0,0-2.85,2.85"/><path class="cls-4" d="M29.88,46V15.18a4.27,4.27,0,1,1,8.54,0"/><path class="cls-4" d="M38.94,21a2.85,2.85,0,1,0,0-5.7h-.6"/><path class="cls-4" d="M44.41,24.14h0a3.24,3.24,0,0,0-3.24-3.23H39.79"/><path class="cls-4" d="M34.21,20.85h1.21a1.38,1.38,0,0,0,1.38-1.39V18.18"/><line class="cls-3" x1="11.76" y1="26.65" x2="26.12" y2="26.65"/><line class="cls-3" x1="30.91" y1="26.65" x2="44.93" y2="26.65"/></g></g></g></svg>