<svg id="Layer_1" data-name="Layer 1" xmlns="http://www.w3.org/2000/svg" viewBox="0 0 595.28 209.8"><defs><style>.cls-1{fill:#414042;}.cls-2{fill:#00b1ba;}</style></defs><path class="cls-1" d="M252.72,133.57v5.22h6.88V140h-6.88v5.64h-1.4v-13.3h9.12v1.22Z"/><path class="cls-1" d="M272.94,145.65l-3-4.27a9.18,9.18,0,0,1-1.06.05h-3.58v4.22h-1.4v-13.3h5a6,6,0,0,1,4,1.22,4.13,4.13,0,0,1,1.44,3.34,4.13,4.13,0,0,1-3,4.18l3.25,4.56Zm-1.12-6.29a3,3,0,0,0,1-2.45,3,3,0,0,0-1-2.48,4.66,4.66,0,0,0-3-.86h-3.54v6.67h3.54A4.55,4.55,0,0,0,271.82,139.36Z"/><path class="cls-1" d="M287.51,144.44v1.21h-9.4v-13.3h9.12v1.22h-7.72v4.73h6.88v1.2h-6.88v4.94Z"/><path class="cls-1" d="M300.74,144.44v1.21h-9.41v-13.3h9.12v1.22h-7.71v4.73h6.88v1.2h-6.88v4.94Z"/><path class="cls-1" d="M304.55,132.35H306v12.09h7.45v1.21h-8.86Z"/><path class="cls-1" d="M324.64,142.1h-7.41l-1.6,3.55h-1.46l6.08-13.3h1.39l6.08,13.3h-1.49Zm-.51-1.14-3.2-7.14L317.74,141Z"/><path class="cls-1" d="M341.55,132.35v13.3h-1.16l-8.55-10.79v10.79h-1.41v-13.3h1.16l8.57,10.79V132.35Z"/><path class="cls-1" d="M348.61,144.89a6.37,6.37,0,0,1-2.49-2.42,7.07,7.07,0,0,1,0-6.94,6.4,6.4,0,0,1,2.5-2.42,7.8,7.8,0,0,1,6.3-.38,5.57,5.57,0,0,1,2.13,1.45l-.89.89a5.31,5.31,0,0,0-3.93-1.58,5.77,5.77,0,0,0-2.87.72,5.36,5.36,0,0,0-2,2,5.77,5.77,0,0,0,0,5.62,5.29,5.29,0,0,0,2,2,5.77,5.77,0,0,0,2.87.72,5.24,5.24,0,0,0,3.93-1.59l.89.89a5.64,5.64,0,0,1-2.14,1.45,7.22,7.22,0,0,1-2.74.51A7.15,7.15,0,0,1,348.61,144.89Z"/><path class="cls-1" d="M370,144.44v1.21h-9.4v-13.3h9.12v1.22H362v4.73h6.88v1.2H362v4.94Z"/><path class="cls-1" d="M138.67,97.3l-.08,19.79a23.34,23.34,0,0,1-1.85,9.23A23.83,23.83,0,0,1,124.12,139a23.11,23.11,0,0,1-9.27,1.85A22.77,22.77,0,0,1,105.7,139a25,25,0,0,1-7.57-5.05l8.68-7.78a12.09,12.09,0,0,0,8,3.08,19.27,19.27,0,0,0,3.87-.4,12.47,12.47,0,0,0,3.66-1.35A10.06,10.06,0,0,0,125.3,125a7.94,7.94,0,0,0,1.62-3.67l.16-5.6a11.74,11.74,0,0,1-5.64,4.22,21.12,21.12,0,0,1-6.43,1,23.17,23.17,0,0,1-9.23-1.86,23.66,23.66,0,0,1-12.66-12.65,23.65,23.65,0,0,1,5.09-26,24.31,24.31,0,0,1,7.57-5,24,24,0,0,1,18.46,0A23.44,23.44,0,0,1,136.82,88a23.34,23.34,0,0,1,1.85,9.23Zm-11.59-.08a11.77,11.77,0,0,0-1-4.66,12.21,12.21,0,0,0-2.6-3.86,12.37,12.37,0,0,0-3.87-2.6,11.69,11.69,0,0,0-4.65-.95,11.89,11.89,0,0,0-4.73.95,12.13,12.13,0,0,0-6.47,6.46,11.77,11.77,0,0,0-1,4.66,11.89,11.89,0,0,0,1,4.73,12.19,12.19,0,0,0,6.47,6.47,11.89,11.89,0,0,0,4.73.94,11.68,11.68,0,0,0,4.65-.94,12.19,12.19,0,0,0,6.47-6.47A11.89,11.89,0,0,0,127.08,97.22Z"/><path class="cls-1" d="M158.15,98.4l.08,22.09H146.48q0-13.5,0-22.21t0-13.76v-9l11.83-.16-.32,6.55a14.09,14.09,0,0,1,1.74-2.65,10,10,0,0,1,2.56-2.13A13.84,13.84,0,0,1,166,75.72a22.32,22.32,0,0,1,5.13-.51v11.6a17.27,17.27,0,0,0-4.85.67,11.81,11.81,0,0,0-4.14,2.09,10.41,10.41,0,0,0-2.92,3.59A11.36,11.36,0,0,0,158.15,98.4Z"/><path class="cls-1" d="M218.73,98.09v22.4H206.9l.23-3.21A18.63,18.63,0,0,1,195,121.75a23.17,23.17,0,0,1-9.23-1.86,23.64,23.64,0,0,1-12.66-12.66,23.93,23.93,0,0,1,0-18.45,23.73,23.73,0,0,1,12.66-12.66,24,24,0,0,1,18.46,0,23.66,23.66,0,0,1,12.65,12.66A23.17,23.17,0,0,1,218.73,98Zm-11.6,0a11.82,11.82,0,0,0-.95-4.75,12.17,12.17,0,0,0-6.49-6.49,12.33,12.33,0,0,0-9.49,0,11.67,11.67,0,0,0-3.84,2.61,12.57,12.57,0,0,0-2.57,3.88,12.06,12.06,0,0,0,6.41,15.9,12.33,12.33,0,0,0,9.49,0,12.57,12.57,0,0,0,3.88-2.57,12,12,0,0,0,3.56-8.58Z"/><path class="cls-1" d="M226.22,97.3a23.34,23.34,0,0,1,1.85-9.23,23.73,23.73,0,0,1,12.66-12.66,24,24,0,0,1,18.46,0,23.4,23.4,0,0,1,7.53,5.09,24.19,24.19,0,0,1,5,7.57,23.93,23.93,0,0,1,0,18.45,23.35,23.35,0,0,1-12.58,12.58A23.17,23.17,0,0,1,250,121a14.41,14.41,0,0,1-3.43-.44,18.78,18.78,0,0,1-3.43-1.18,20.08,20.08,0,0,1-3-1.69,9.61,9.61,0,0,1-2.17-2l.16,16.09H226.22V97.3Zm11.6,0a11.63,11.63,0,0,0,.94,4.69,12.3,12.3,0,0,0,6.47,6.43,11.89,11.89,0,0,0,4.73.94,11.68,11.68,0,0,0,4.65-.94,12.12,12.12,0,0,0,3.87-2.61,12.27,12.27,0,0,0,2.6-3.82A11.63,11.63,0,0,0,262,97.3a11.94,11.94,0,0,0-.95-4.74,12.13,12.13,0,0,0-6.47-6.46,11.69,11.69,0,0,0-4.65-.95,11.89,11.89,0,0,0-4.73.95,12.37,12.37,0,0,0-3.87,2.6,12.21,12.21,0,0,0-2.6,3.86A11.94,11.94,0,0,0,237.82,97.3Z"/><path class="cls-1" d="M301.07,74.58a23.37,23.37,0,0,1,9.23,1.85,24.31,24.31,0,0,1,7.57,5A23.49,23.49,0,0,1,323,89a23,23,0,0,1,1.85,9.18l.32,22.4H313.45l-.23-22.34a11.69,11.69,0,0,0-1-4.65,12.16,12.16,0,0,0-6.47-6.45,11.89,11.89,0,0,0-4.73-.94,11.59,11.59,0,0,0-4.69.94A12.26,12.26,0,0,0,290,93.57a11.69,11.69,0,0,0-.95,4.65l.16,22.34H277.41V63.7h11.75l-.08,11.35-.24,4.61a9.88,9.88,0,0,1,2.37-2.1A18.61,18.61,0,0,1,294.29,76a19.2,19.2,0,0,1,3.39-1A16.64,16.64,0,0,1,301.07,74.58Z"/><path class="cls-2" d="M337.15,71.66a6.43,6.43,0,0,1-4.64-1.89,6.25,6.25,0,0,1-1.94-4.65V61.8a1.52,1.52,0,0,1,.08-.63h13.09v4a6.3,6.3,0,0,1-1.91,4.65A6.37,6.37,0,0,1,337.15,71.66Z"/><rect class="cls-1" x="331.36" y="75.61" width="11.83" height="44.88"/><path class="cls-1" d="M396.19,97.38v34.46H384.36l.16-16.09a14.54,14.54,0,0,1-2.21,1.9,18.72,18.72,0,0,1-3,1.69,21.5,21.5,0,0,1-3.43,1.22,13.12,13.12,0,0,1-3.43.48,23.17,23.17,0,0,1-9.23-1.86,23.64,23.64,0,0,1-12.66-12.66,23.93,23.93,0,0,1,0-18.45,23.4,23.4,0,0,1,5.09-7.53,24,24,0,0,1,7.57-5.05,24,24,0,0,1,18.46,0,24.14,24.14,0,0,1,7.57,5.05,23.48,23.48,0,0,1,6.94,16.76Zm-11.67-.08a11.77,11.77,0,0,0-.95-4.66A12.63,12.63,0,0,0,381,88.78a12.06,12.06,0,0,0-17.12,0,12.45,12.45,0,0,0-2.56,3.86,11.77,11.77,0,0,0-.95,4.66,11.89,11.89,0,0,0,.95,4.73,12.45,12.45,0,0,0,2.56,3.86,11.63,11.63,0,0,0,3.83,2.61,12.37,12.37,0,0,0,9.46,0,11.73,11.73,0,0,0,3.83-2.61,12.63,12.63,0,0,0,2.56-3.86A11.89,11.89,0,0,0,384.52,97.3Z"/><path class="cls-1" d="M427.42,109.44a11.89,11.89,0,0,0,4.73-.94,11.63,11.63,0,0,0,3.83-2.61,12.45,12.45,0,0,0,2.56-3.86,11.89,11.89,0,0,0,.95-4.73l.32-21.93h11.43l-.08,21.93a23.29,23.29,0,0,1-1.85,9.22,23.64,23.64,0,0,1-12.66,12.66,23.83,23.83,0,0,1-18.46,0,23.64,23.64,0,0,1-12.66-12.66,23.29,23.29,0,0,1-1.85-9.22l.24-21.93H415.2l.16,21.93a11.89,11.89,0,0,0,.94,4.73,12.63,12.63,0,0,0,2.56,3.86,11.73,11.73,0,0,0,3.83,2.61A11.89,11.89,0,0,0,427.42,109.44Z"/><path class="cls-1" d="M480.27,121A23.59,23.59,0,0,1,463.51,114a24.14,24.14,0,0,1-5.05-7.57,23.83,23.83,0,0,1,0-18.46A23.44,23.44,0,0,1,471,75.41a23.93,23.93,0,0,1,18.45,0,24.24,24.24,0,0,1,7.58,5A23.59,23.59,0,0,1,504,97.22v4.65H469.15a11.84,11.84,0,0,0,4.33,5.4,11.54,11.54,0,0,0,6.79,2.09,12,12,0,0,0,4.45-.82,11.48,11.48,0,0,0,3.67-2.33l8.6,7.89a23.53,23.53,0,0,1-7.5,5A23.27,23.27,0,0,1,480.27,121Zm-11.6-27.13h23.19a12,12,0,0,0-4.26-6.23,11.63,11.63,0,0,0-7.33-2.45,12.09,12.09,0,0,0-3.91.63,12.22,12.22,0,0,0-6,4.58A11.58,11.58,0,0,0,468.67,93.83Z"/></svg>