<?xml version="1.0" standalone="no"?>
<!DOCTYPE svg PUBLIC "-//W3C//DTD SVG 20010904//EN"
 "http://www.w3.org/TR/2001/REC-SVG-20010904/DTD/svg10.dtd">
<svg version="1.0" xmlns="http://www.w3.org/2000/svg"
 width="200.000000pt" height="200.000000pt" viewBox="0 0 200.000000 200.000000"
 preserveAspectRatio="xMidYMid meet">
<metadata>
Created by potrace 1.11, written by Peter Selinger 2001-2013
</metadata>
<g transform="translate(0.000000,200.000000) scale(0.100000,-0.100000)"
fill="#000000" stroke="none">
<path d="M7 1993 c-4 -3 -7 -453 -7 -1000 l0 -993 1000 0 1000 0 0 1000 0
1000 -993 0 c-547 0 -997 -3 -1000 -7z m1056 -98 c186 -39 354 -198 402 -380
12 -49 15 -135 15 -492 l0 -433 -130 0 -130 0 0 181 0 181 -37 -30 c-74 -58
-152 -84 -250 -83 -92 0 -152 15 -238 60 -175 90 -285 272 -285 471 0 152 48
270 154 376 137 138 310 189 499 149z"/>
<path d="M856 1634 c-68 -21 -147 -101 -171 -173 -59 -178 74 -365 259 -365
165 1 287 134 274 298 -7 76 -33 130 -91 183 -73 67 -170 88 -271 57z"/>
</g>
</svg>
