<svg id="Layer_1" data-name="Layer 1" xmlns="http://www.w3.org/2000/svg" viewBox="0 0 412.74 84.59"><defs><style>.cls-1{fill:#fff;}.cls-2{fill:#00b1ba;}</style></defs><path class="cls-1" d="M161.45,72.4v5.22h6.88v1.22h-6.88v5.64h-1.4V71.18h9.12V72.4Z"/><path class="cls-1" d="M181.67,84.48l-3-4.28a9.16,9.16,0,0,1-1.06.06H174v4.22h-1.4V71.18h5a6,6,0,0,1,4,1.22A4.13,4.13,0,0,1,183,75.74a4.13,4.13,0,0,1-3,4.18l3.25,4.56Zm-1.12-6.29a3.44,3.44,0,0,0,0-4.93,4.61,4.61,0,0,0-3-.86H174v6.66h3.54A4.61,4.61,0,0,0,180.55,78.19Z"/><path class="cls-1" d="M196.24,83.26v1.22h-9.4V71.18H196V72.4h-7.72v4.73h6.88v1.19h-6.88v4.94Z"/><path class="cls-1" d="M209.47,83.26v1.22h-9.41V71.18h9.12V72.4h-7.71v4.73h6.88v1.19h-6.88v4.94Z"/><path class="cls-1" d="M213.29,71.18h1.4V83.26h7.45v1.22h-8.85Z"/><path class="cls-1" d="M233.37,80.93H226l-1.6,3.55H222.9L229,71.18h1.39l6.08,13.3H235Zm-.51-1.14-3.2-7.15-3.19,7.15Z"/><path class="cls-1" d="M250.28,71.18v13.3h-1.16l-8.55-10.79V84.48h-1.41V71.18h1.16L248.89,82V71.18Z"/><path class="cls-1" d="M257.34,83.72a6.37,6.37,0,0,1-2.49-2.42,7.07,7.07,0,0,1,0-6.94,6.33,6.33,0,0,1,2.5-2.42,7.8,7.8,0,0,1,6.3-.38A5.66,5.66,0,0,1,265.78,73l-.89.9A5.27,5.27,0,0,0,261,72.32a5.77,5.77,0,0,0-2.87.72,5.29,5.29,0,0,0-2,2,5.77,5.77,0,0,0,0,5.62,5.29,5.29,0,0,0,2,2,5.77,5.77,0,0,0,2.87.72,5.22,5.22,0,0,0,3.93-1.6l.89.9a5.76,5.76,0,0,1-2.14,1.45,7.74,7.74,0,0,1-6.3-.37Z"/><path class="cls-1" d="M278.7,83.26v1.22h-9.4V71.18h9.12V72.4H270.7v4.73h6.88v1.19H270.7v4.94Z"/><path class="cls-1" d="M47.4,36.12l-.08,19.8a23.16,23.16,0,0,1-1.85,9.23A23.83,23.83,0,0,1,32.85,77.81a23.25,23.25,0,0,1-9.27,1.85,22.77,22.77,0,0,1-9.15-1.84,25.15,25.15,0,0,1-7.57-5L15.54,65a12.15,12.15,0,0,0,8,3.08,20,20,0,0,0,3.87-.4,12.65,12.65,0,0,0,3.67-1.36A9.87,9.87,0,0,0,34,63.84a8,8,0,0,0,1.62-3.66l.16-5.6a11.75,11.75,0,0,1-5.64,4.22,21.12,21.12,0,0,1-6.43,1,23.17,23.17,0,0,1-9.23-1.86A23.73,23.73,0,0,1,1.85,45.27a23.67,23.67,0,0,1,5.09-26,24.11,24.11,0,0,1,7.57-5,23.17,23.17,0,0,1,9.23-1.86A23.17,23.17,0,0,1,33,14.24a23.59,23.59,0,0,1,7.53,5,23.83,23.83,0,0,1,5,7.54A23.32,23.32,0,0,1,47.4,36ZM35.81,36a11.72,11.72,0,0,0-1-4.65,12.19,12.19,0,0,0-6.47-6.47A11.68,11.68,0,0,0,23.74,24a11.89,11.89,0,0,0-4.73.94,12.19,12.19,0,0,0-6.47,6.47A11.72,11.72,0,0,0,11.59,36a11.91,11.91,0,0,0,.95,4.74A12.13,12.13,0,0,0,19,47.24a11.72,11.72,0,0,0,4.73.95,11.52,11.52,0,0,0,4.65-.95,12.13,12.13,0,0,0,6.47-6.46A11.91,11.91,0,0,0,35.81,36Z"/><path class="cls-1" d="M66.88,37.23,67,59.31H55.21q0-13.48,0-22.2t0-13.76v-9l11.83-.15-.31,6.54a13.8,13.8,0,0,1,1.73-2.64A10,10,0,0,1,71.1,16a13.51,13.51,0,0,1,3.67-1.42A22.32,22.32,0,0,1,79.9,14V25.63a17.64,17.64,0,0,0-4.85.67,12.25,12.25,0,0,0-4.14,2.09A10.6,10.6,0,0,0,68,32,11.44,11.44,0,0,0,66.88,37.23Z"/><path class="cls-1" d="M127.46,36.91v22.4H115.63l.23-3.2a18.62,18.62,0,0,1-12.14,4.46,23.16,23.16,0,0,1-9.23-1.85A23.73,23.73,0,0,1,81.83,46.06a23.93,23.93,0,0,1,0-18.45A23.64,23.64,0,0,1,94.49,15,23.83,23.83,0,0,1,113,15a23.64,23.64,0,0,1,12.66,12.66,23.29,23.29,0,0,1,1.85,9.22Zm-11.6,0a11.74,11.74,0,0,0-1-4.74,12.2,12.2,0,0,0-6.48-6.49,12.35,12.35,0,0,0-9.5,0,11.67,11.67,0,0,0-3.84,2.61,12.57,12.57,0,0,0-2.57,3.88,12.33,12.33,0,0,0,0,9.49A12.19,12.19,0,0,0,108.43,48a12.64,12.64,0,0,0,3.87-2.57,12,12,0,0,0,3.56-8.59Z"/><path class="cls-1" d="M135,36.12a23.12,23.12,0,0,1,1.86-9.22,23.58,23.58,0,0,1,12.65-12.66,23.68,23.68,0,0,1,26,5.08,24.24,24.24,0,0,1,5.05,7.58,23.93,23.93,0,0,1,0,18.45,23.44,23.44,0,0,1-12.58,12.58,23.17,23.17,0,0,1-9.23,1.86,14.47,14.47,0,0,1-3.43-.44,19.57,19.57,0,0,1-3.43-1.18,20.12,20.12,0,0,1-3-1.7,9.31,9.31,0,0,1-2.16-2l.15,16.09H135V36.12Zm11.6,0a11.64,11.64,0,0,0,.94,4.7,12.24,12.24,0,0,0,2.61,3.82,12.05,12.05,0,0,0,3.86,2.6,11.72,11.72,0,0,0,4.73.95,11.6,11.6,0,0,0,4.66-.95,12.05,12.05,0,0,0,3.86-2.6,12.38,12.38,0,0,0,2.6-3.82,11.65,11.65,0,0,0,.95-4.7,11.89,11.89,0,0,0-.95-4.73,12.21,12.21,0,0,0-2.6-3.86,12.08,12.08,0,0,0-3.86-2.61,11.76,11.76,0,0,0-4.66-.94,11.89,11.89,0,0,0-4.73.94,12.28,12.28,0,0,0-6.47,6.47A11.89,11.89,0,0,0,146.55,36.12Z"/><path class="cls-1" d="M209.8,13.41A23.34,23.34,0,0,1,219,15.26a24.31,24.31,0,0,1,7.57,5,23.56,23.56,0,0,1,5.09,7.49A23.07,23.07,0,0,1,233.54,37l.32,22.4H222.18L222,37A11.67,11.67,0,0,0,221,32.4,12.07,12.07,0,0,0,214.53,26,11.89,11.89,0,0,0,209.8,25a11.6,11.6,0,0,0-4.69.95,12.17,12.17,0,0,0-6.43,6.45,11.67,11.67,0,0,0-1,4.64l.16,22.35H186.14V2.52h11.75l-.08,11.36-.23,4.61a9.62,9.62,0,0,1,2.36-2.1A18.61,18.61,0,0,1,203,14.8a18.4,18.4,0,0,1,3.39-1A16.64,16.64,0,0,1,209.8,13.41Z"/><path class="cls-2" d="M245.88,10.49a6.43,6.43,0,0,1-4.64-1.89,6.29,6.29,0,0,1-1.94-4.66V.63a1.52,1.52,0,0,1,.08-.63h13.09V3.94a6.47,6.47,0,0,1-6.59,6.55Z"/><rect class="cls-1" x="240.09" y="14.43" width="11.83" height="44.88"/><path class="cls-1" d="M304.92,36.2V70.67H293.09l.16-16.09A14,14,0,0,1,291,56.47a18.32,18.32,0,0,1-3,1.7,21.5,21.5,0,0,1-3.43,1.22,13.1,13.1,0,0,1-3.43.47A23.16,23.16,0,0,1,272,58a23.73,23.73,0,0,1-12.66-12.66,23.67,23.67,0,0,1,5.09-26,24,24,0,0,1,7.57-5,23.83,23.83,0,0,1,18.46,0,24.11,24.11,0,0,1,7.57,5,23.53,23.53,0,0,1,6.94,16.76Zm-11.67-.08a11.69,11.69,0,0,0-.95-4.65,12.63,12.63,0,0,0-2.56-3.86A11.73,11.73,0,0,0,285.91,25a12.37,12.37,0,0,0-9.46,0,11.63,11.63,0,0,0-3.83,2.61,12.45,12.45,0,0,0-2.56,3.86,11.69,11.69,0,0,0-.95,4.65,11.94,11.94,0,0,0,.95,4.74,12.45,12.45,0,0,0,2.56,3.86,11.76,11.76,0,0,0,3.83,2.6,12.06,12.06,0,0,0,13.29-2.6,12.63,12.63,0,0,0,2.56-3.86A11.94,11.94,0,0,0,293.25,36.12Z"/><path class="cls-1" d="M336.15,48.27a12,12,0,0,0,4.74-1,11.82,11.82,0,0,0,3.82-2.6,12.45,12.45,0,0,0,2.56-3.86,11.77,11.77,0,0,0,1-4.74l.32-21.92H360l-.08,21.92A23.16,23.16,0,0,1,358,45.35,23.73,23.73,0,0,1,345.38,58a24,24,0,0,1-18.46,0,23.66,23.66,0,0,1-12.65-12.66,23.17,23.17,0,0,1-1.86-9.23l.24-21.92h11.28l.16,21.92a11.94,11.94,0,0,0,.94,4.74,12.47,12.47,0,0,0,2.57,3.86,11.71,11.71,0,0,0,3.82,2.6A11.89,11.89,0,0,0,336.15,48.27Z"/><path class="cls-1" d="M389,59.79a23.54,23.54,0,0,1-16.76-6.95,23.91,23.91,0,0,1-5.05-7.57,23.81,23.81,0,0,1,0-18.45,23.35,23.35,0,0,1,12.58-12.58,23.81,23.81,0,0,1,18.45,0,24,24,0,0,1,7.58,5,23.42,23.42,0,0,1,5.08,7.54A23.16,23.16,0,0,1,412.74,36V40.7H377.88a11.84,11.84,0,0,0,4.33,5.4A11.61,11.61,0,0,0,389,48.19a11.81,11.81,0,0,0,4.45-.83A11.18,11.18,0,0,0,397.12,45l8.6,7.88a23.55,23.55,0,0,1-7.5,5A23.23,23.23,0,0,1,389,59.79ZM377.4,32.65h23.19a12,12,0,0,0-4.26-6.23A11.62,11.62,0,0,0,389,24a12.09,12.09,0,0,0-3.91.63,11.78,11.78,0,0,0-3.39,1.81,12.56,12.56,0,0,0-2.64,2.76A11.82,11.82,0,0,0,377.4,32.65Z"/></svg>