<svg id="Layer_1" data-name="Layer 1" xmlns="http://www.w3.org/2000/svg" viewBox="0 0 595.28 209.8"><defs><style>.cls-1{fill:#fff;}.cls-2{fill:#00b1ba;}</style></defs><path class="cls-1" d="M255.36,135v5.23h6.87v1.21h-6.87v5.64H254v-13.3h9.12V135Z"/><path class="cls-1" d="M275.57,147.08l-3-4.27a9,9,0,0,1-1.06.06H267.9v4.21h-1.41v-13.3h5a6,6,0,0,1,4,1.22,4.15,4.15,0,0,1,1.44,3.34,4.11,4.11,0,0,1-3,4.18l3.25,4.56Zm-1.12-6.28a3.43,3.43,0,0,0,0-4.94,4.66,4.66,0,0,0-3-.86H267.9v6.67h3.53A4.61,4.61,0,0,0,274.45,140.8Z"/><path class="cls-1" d="M290.15,145.87v1.21h-9.41v-13.3h9.12V135h-7.71v4.73H289v1.2h-6.87v4.94Z"/><path class="cls-1" d="M303.37,145.87v1.21H294v-13.3h9.12V135h-7.71v4.73h6.88v1.2h-6.88v4.94Z"/><path class="cls-1" d="M307.19,133.78h1.4v12.09H316v1.21h-8.85Z"/><path class="cls-1" d="M327.27,143.53h-7.41l-1.6,3.55H316.8l6.08-13.3h1.39l6.08,13.3h-1.48Zm-.51-1.14-3.19-7.14-3.2,7.14Z"/><path class="cls-1" d="M344.18,133.78v13.3H343l-8.55-10.79v10.79h-1.4v-13.3h1.15l8.57,10.8v-10.8Z"/><path class="cls-1" d="M351.24,146.32a6.37,6.37,0,0,1-2.49-2.42,7.12,7.12,0,0,1,0-6.93,6.35,6.35,0,0,1,2.5-2.43,7.31,7.31,0,0,1,3.57-.87,7.62,7.62,0,0,1,2.74.49,5.73,5.73,0,0,1,2.12,1.45l-.89.89a5.31,5.31,0,0,0-3.93-1.58,5.8,5.8,0,0,0-2.87.73,5.24,5.24,0,0,0-2,2,5.72,5.72,0,0,0,0,5.63,5.24,5.24,0,0,0,2,2,5.8,5.8,0,0,0,2.87.72,5.24,5.24,0,0,0,3.93-1.59l.89.89a5.69,5.69,0,0,1-2.13,1.45,7.31,7.31,0,0,1-2.75.51A7.17,7.17,0,0,1,351.24,146.32Z"/><path class="cls-1" d="M372.6,145.87v1.21h-9.4v-13.3h9.12V135H364.6v4.73h6.88v1.2H364.6v4.94Z"/><path class="cls-1" d="M141.3,98.73l-.07,19.8a23.12,23.12,0,0,1-1.86,9.22,23.74,23.74,0,0,1-12.62,12.66,23,23,0,0,1-9.26,1.86,22.74,22.74,0,0,1-9.15-1.85,25,25,0,0,1-7.58-5l8.68-7.77a12.05,12.05,0,0,0,3.67,2.24,11.6,11.6,0,0,0,4.38.83,19.18,19.18,0,0,0,3.86-.4,12.25,12.25,0,0,0,3.67-1.35,10.19,10.19,0,0,0,2.92-2.47,8,8,0,0,0,1.61-3.67l.16-5.6a11.65,11.65,0,0,1-5.64,4.22,21.12,21.12,0,0,1-6.43,1,23.37,23.37,0,0,1-9.23-1.85,23.66,23.66,0,0,1-12.65-12.66,23.68,23.68,0,0,1,5.08-26,24.31,24.31,0,0,1,7.57-5,24,24,0,0,1,18.46,0,23.44,23.44,0,0,1,12.58,12.58,23.16,23.16,0,0,1,1.85,9.23Zm-11.59-.08a11.69,11.69,0,0,0-1-4.65,12.13,12.13,0,0,0-6.46-6.47,11.77,11.77,0,0,0-4.66-1,11.89,11.89,0,0,0-4.73,1A12.19,12.19,0,0,0,106.44,94a11.68,11.68,0,0,0-.94,4.65,11.89,11.89,0,0,0,.94,4.73,12.19,12.19,0,0,0,6.47,6.47,11.89,11.89,0,0,0,4.73,1,11.77,11.77,0,0,0,4.66-1,12.13,12.13,0,0,0,6.46-6.47A11.89,11.89,0,0,0,129.71,98.65Z"/><path class="cls-1" d="M160.79,99.83l.07,22.09H149.11q0-13.48,0-22.21t0-13.76V77L161,76.8l-.31,6.55a13.21,13.21,0,0,1,1.73-2.64A9.68,9.68,0,0,1,165,78.58a13,13,0,0,1,3.66-1.42,22.27,22.27,0,0,1,5.13-.52v11.6a17.32,17.32,0,0,0-4.85.67A12.07,12.07,0,0,0,164.81,91a10.62,10.62,0,0,0-2.92,3.59A11.37,11.37,0,0,0,160.79,99.83Z"/><path class="cls-1" d="M221.36,99.52v22.4H209.53l.24-3.21a18.67,18.67,0,0,1-12.15,4.47,23.34,23.34,0,0,1-9.23-1.85,23.73,23.73,0,0,1-12.66-12.66,24,24,0,0,1,0-18.46,23.73,23.73,0,0,1,12.66-12.66,24,24,0,0,1,18.46,0,23.73,23.73,0,0,1,12.66,12.66,23.34,23.34,0,0,1,1.85,9.23Zm-11.59,0a12,12,0,0,0-1-4.75,12.26,12.26,0,0,0-6.49-6.49,12.35,12.35,0,0,0-9.5,0A12.21,12.21,0,0,0,189,90.85a12.75,12.75,0,0,0-2.57,3.88,12.35,12.35,0,0,0,0,9.5,12,12,0,0,0,6.41,6.41,12.47,12.47,0,0,0,9.5,0,12.55,12.55,0,0,0,3.87-2.58,11.86,11.86,0,0,0,3.57-8.58Z"/><path class="cls-1" d="M228.85,98.73a23.17,23.17,0,0,1,1.86-9.23,23.64,23.64,0,0,1,12.66-12.66,23.93,23.93,0,0,1,18.45,0,23.56,23.56,0,0,1,7.54,5.09,24.28,24.28,0,0,1,5,7.57,23.83,23.83,0,0,1,0,18.46,23.35,23.35,0,0,1-12.58,12.58,23.34,23.34,0,0,1-9.23,1.85,15,15,0,0,1-3.43-.43,20.33,20.33,0,0,1-6.46-2.88,9.38,9.38,0,0,1-2.17-2l.15,16.09H228.85V98.73Zm11.6,0a11.59,11.59,0,0,0,.94,4.69,12.46,12.46,0,0,0,2.61,3.83,12.21,12.21,0,0,0,3.86,2.6,11.89,11.89,0,0,0,4.73,1,11.73,11.73,0,0,0,4.66-1,12.24,12.24,0,0,0,6.46-6.43,11.43,11.43,0,0,0,1-4.69,11.72,11.72,0,0,0-1-4.73,12.13,12.13,0,0,0-6.46-6.47,11.73,11.73,0,0,0-4.66-1,11.89,11.89,0,0,0-4.73,1,12.21,12.21,0,0,0-3.86,2.6A12.4,12.4,0,0,0,241.39,94,11.89,11.89,0,0,0,240.45,98.73Z"/><path class="cls-1" d="M303.7,76a23.17,23.17,0,0,1,9.23,1.86,24.17,24.17,0,0,1,7.57,5,23.49,23.49,0,0,1,5.09,7.5,23,23,0,0,1,1.85,9.19l.32,22.4H316.09l-.24-22.35a11.69,11.69,0,0,0-1-4.65,12.18,12.18,0,0,0-6.46-6.45,12,12,0,0,0-4.74-.94,11.59,11.59,0,0,0-4.69.94,12.43,12.43,0,0,0-3.83,2.6,12.28,12.28,0,0,0-2.6,3.85,11.68,11.68,0,0,0-.94,4.65l.15,22.35H280V65.13h11.75l-.08,11.36-.23,4.61A9.65,9.65,0,0,1,293.84,79a19.33,19.33,0,0,1,6.47-2.62A16.71,16.71,0,0,1,303.7,76Z"/><path class="cls-2" d="M339.79,73.1a6.46,6.46,0,0,1-4.65-1.9,6.25,6.25,0,0,1-1.94-4.65V63.24a1.65,1.65,0,0,1,.08-.63h13.09v3.94a6.29,6.29,0,0,1-1.9,4.65A6.4,6.4,0,0,1,339.79,73.1Z"/><rect class="cls-1" x="333.99" y="77.04" width="11.83" height="44.88"/><path class="cls-1" d="M398.82,98.81v34.46H387l.16-16.09a13.5,13.5,0,0,1-2.21,1.9,17.89,17.89,0,0,1-3,1.69,22.19,22.19,0,0,1-3.43,1.23,13.47,13.47,0,0,1-3.43.47,23.34,23.34,0,0,1-9.23-1.85A23.73,23.73,0,0,1,353.19,108a23.65,23.65,0,0,1,5.09-26,24.31,24.31,0,0,1,7.57-5,24,24,0,0,1,18.46,0,24.31,24.31,0,0,1,7.57,5,23.48,23.48,0,0,1,6.94,16.76Zm-11.67-.08a11.69,11.69,0,0,0-.95-4.65,12.38,12.38,0,0,0-2.56-3.87,12.06,12.06,0,0,0-17.12,0A12.55,12.55,0,0,0,364,94.08a11.69,11.69,0,0,0-.95,4.65,11.89,11.89,0,0,0,.95,4.73,12.79,12.79,0,0,0,2.56,3.87,12.06,12.06,0,0,0,17.12,0,12.61,12.61,0,0,0,2.56-3.87A11.89,11.89,0,0,0,387.15,98.73Z"/><path class="cls-1" d="M430.06,110.88a11.9,11.9,0,0,0,8.55-3.55,12.82,12.82,0,0,0,2.57-3.87,11.89,11.89,0,0,0,.94-4.73l.32-21.93h11.43l-.07,21.93a23.17,23.17,0,0,1-1.86,9.23,23.64,23.64,0,0,1-12.66,12.66,23.93,23.93,0,0,1-18.45,0A23.73,23.73,0,0,1,408.17,108a23.17,23.17,0,0,1-1.86-9.23l.24-21.93h11.28L418,98.73a11.89,11.89,0,0,0,.94,4.73,12.82,12.82,0,0,0,2.57,3.87,11.71,11.71,0,0,0,3.82,2.6A11.91,11.91,0,0,0,430.06,110.88Z"/><path class="cls-1" d="M482.9,122.39a23.48,23.48,0,0,1-16.76-6.94,24.31,24.31,0,0,1-5.05-7.57,24,24,0,0,1,0-18.46,23.44,23.44,0,0,1,12.58-12.58,24,24,0,0,1,18.46,0,24.31,24.31,0,0,1,7.57,5,23.48,23.48,0,0,1,6.94,16.76v4.65H471.78a11.94,11.94,0,0,0,4.34,5.41,11.56,11.56,0,0,0,6.78,2.09,12.06,12.06,0,0,0,4.46-.83,11.27,11.27,0,0,0,3.66-2.33l8.6,7.89a23.23,23.23,0,0,1-16.72,6.86ZM471.3,95.26h23.19A11.84,11.84,0,0,0,490.23,89a11.61,11.61,0,0,0-7.33-2.45A11.78,11.78,0,0,0,475.6,89,12.8,12.8,0,0,0,473,91.79,11.7,11.7,0,0,0,471.3,95.26Z"/></svg>